<?xml version="1.0" encoding="UTF-8" standalone="no"?>
<!DOCTYPE svg PUBLIC "-//W3C//DTD SVG 1.1//EN"
 "http://www.w3.org/Graphics/SVG/1.1/DTD/svg11.dtd">
<!-- Generated by graphviz version 14.1.5 (20260411.2331)
 -->
<!-- Title: WeightedUndirected Pages: 1 -->
<svg width="98pt" height="221pt"
 viewBox="0.00 0.00 98.00 221.00" xmlns="http://www.w3.org/2000/svg" xmlns:xlink="http://www.w3.org/1999/xlink">
<g id="graph0" class="graph" transform="scale(1 1) rotate(0) translate(4 217)">
<title>WeightedUndirected</title>
<polygon fill="white" stroke="none" points="-4,4 -4,-217 94,-217 94,4 -4,4"/>
<!-- 0 -->
<g id="node1" class="node">
<title>0</title>
<ellipse fill="none" stroke="black" cx="45" cy="-195" rx="18" ry="18"/>
<text xml:space="preserve" text-anchor="middle" x="45" y="-189.95" font-family="Times,serif" font-size="14.00">0</text>
</g>
<!-- 1 -->
<g id="node2" class="node">
<title>1</title>
<ellipse fill="none" stroke="black" cx="18" cy="-106.5" rx="18" ry="18"/>
<text xml:space="preserve" text-anchor="middle" x="18" y="-101.45" font-family="Times,serif" font-size="14.00">1</text>
</g>
<!-- 0&#45;&#45;1 -->
<g id="edge1" class="edge">
<title>0&#45;&#45;1</title>
<path fill="none" stroke="black" d="M39.79,-177.32C35.01,-162 27.97,-139.43 23.19,-124.13"/>
<text xml:space="preserve" text-anchor="middle" x="37.29" y="-145.7" font-family="Times,serif" font-size="14.00">2</text>
</g>
<!-- 3 -->
<g id="node4" class="node">
<title>3</title>
<ellipse fill="none" stroke="black" cx="72" cy="-106.5" rx="18" ry="18"/>
<text xml:space="preserve" text-anchor="middle" x="72" y="-101.45" font-family="Times,serif" font-size="14.00">3</text>
</g>
<!-- 0&#45;&#45;3 -->
<g id="edge2" class="edge">
<title>0&#45;&#45;3</title>
<path fill="none" stroke="black" d="M50.21,-177.32C54.99,-162 62.03,-139.43 66.81,-124.13"/>
<text xml:space="preserve" text-anchor="middle" x="64.29" y="-145.7" font-family="Times,serif" font-size="14.00">4</text>
</g>
<!-- 2 -->
<g id="node3" class="node">
<title>2</title>
<ellipse fill="none" stroke="black" cx="18" cy="-18" rx="18" ry="18"/>
<text xml:space="preserve" text-anchor="middle" x="18" y="-12.95" font-family="Times,serif" font-size="14.00">2</text>
</g>
<!-- 1&#45;&#45;2 -->
<g id="edge3" class="edge">
<title>1&#45;&#45;2</title>
<path fill="none" stroke="black" d="M18,-88.41C18,-73.34 18,-51.49 18,-36.35"/>
<text xml:space="preserve" text-anchor="middle" x="26.62" y="-57.2" font-family="Times,serif" font-size="14.00">1.5</text>
</g>
<!-- 4 -->
<g id="node5" class="node">
<title>4</title>
<ellipse fill="none" stroke="black" cx="72" cy="-18" rx="18" ry="18"/>
<text xml:space="preserve" text-anchor="middle" x="72" y="-12.95" font-family="Times,serif" font-size="14.00">4</text>
</g>
<!-- 3&#45;&#45;4 -->
<g id="edge4" class="edge">
<title>3&#45;&#45;4</title>
<path fill="none" stroke="black" d="M72,-88.41C72,-73.34 72,-51.49 72,-36.35"/>
<text xml:space="preserve" text-anchor="middle" x="80.62" y="-57.2" font-family="Times,serif" font-size="14.00">2.5</text>
</g>
</g>
</svg>
