<?xml version="1.0" encoding="UTF-8" standalone="no"?>
<!DOCTYPE svg PUBLIC "-//W3C//DTD SVG 1.1//EN"
 "http://www.w3.org/Graphics/SVG/1.1/DTD/svg11.dtd">
<!-- Generated by graphviz version 14.1.5 (20260411.2331)
 -->
<!-- Title: WeightedDirected Pages: 1 -->
<svg width="98pt" height="310pt"
 viewBox="0.00 0.00 98.00 310.00" xmlns="http://www.w3.org/2000/svg" xmlns:xlink="http://www.w3.org/1999/xlink">
<g id="graph0" class="graph" transform="scale(1 1) rotate(0) translate(4 305.5)">
<title>WeightedDirected</title>
<polygon fill="white" stroke="none" points="-4,4 -4,-305.5 94,-305.5 94,4 -4,4"/>
<!-- 0 -->
<g id="node1" class="node">
<title>0</title>
<ellipse fill="none" stroke="black" cx="18" cy="-283.5" rx="18" ry="18"/>
<text xml:space="preserve" text-anchor="middle" x="18" y="-278.45" font-family="Times,serif" font-size="14.00">0</text>
</g>
<!-- 1 -->
<g id="node2" class="node">
<title>1</title>
<ellipse fill="none" stroke="black" cx="18" cy="-106.5" rx="18" ry="18"/>
<text xml:space="preserve" text-anchor="middle" x="18" y="-101.45" font-family="Times,serif" font-size="14.00">1</text>
</g>
<!-- 0&#45;&gt;1 -->
<g id="edge1" class="edge">
<title>0&#45;&gt;1</title>
<path fill="none" stroke="black" d="M15.87,-265.4C14.24,-251.35 12.12,-230.92 11.25,-213 10.48,-197.02 10.48,-192.98 11.25,-177 11.91,-163.42 13.28,-148.4 14.62,-135.81"/>
<polygon fill="black" stroke="black" points="18.08,-136.43 15.71,-126.11 11.12,-135.66 18.08,-136.43"/>
<text xml:space="preserve" text-anchor="middle" x="14.62" y="-189.95" font-family="Times,serif" font-size="14.00">3</text>
</g>
<!-- 2 -->
<g id="node3" class="node">
<title>2</title>
<ellipse fill="none" stroke="black" cx="45" cy="-195" rx="18" ry="18"/>
<text xml:space="preserve" text-anchor="middle" x="45" y="-189.95" font-family="Times,serif" font-size="14.00">2</text>
</g>
<!-- 0&#45;&gt;2 -->
<g id="edge2" class="edge">
<title>0&#45;&gt;2</title>
<path fill="none" stroke="black" d="M23.21,-265.82C26.94,-253.86 32.06,-237.46 36.4,-223.56"/>
<polygon fill="black" stroke="black" points="39.72,-224.66 39.36,-214.07 33.04,-222.57 39.72,-224.66"/>
<text xml:space="preserve" text-anchor="middle" x="37.29" y="-234.2" font-family="Times,serif" font-size="14.00">1</text>
</g>
<!-- 4 -->
<g id="node5" class="node">
<title>4</title>
<ellipse fill="none" stroke="black" cx="18" cy="-18" rx="18" ry="18"/>
<text xml:space="preserve" text-anchor="middle" x="18" y="-12.95" font-family="Times,serif" font-size="14.00">4</text>
</g>
<!-- 1&#45;&gt;4 -->
<g id="edge3" class="edge">
<title>1&#45;&gt;4</title>
<path fill="none" stroke="black" d="M18,-88.41C18,-76.76 18,-61.05 18,-47.52"/>
<polygon fill="black" stroke="black" points="21.5,-47.86 18,-37.86 14.5,-47.86 21.5,-47.86"/>
<text xml:space="preserve" text-anchor="middle" x="21.38" y="-57.2" font-family="Times,serif" font-size="14.00">2</text>
</g>
<!-- 2&#45;&gt;1 -->
<g id="edge4" class="edge">
<title>2&#45;&gt;1</title>
<path fill="none" stroke="black" d="M39.79,-177.32C36.06,-165.36 30.94,-148.96 26.6,-135.06"/>
<polygon fill="black" stroke="black" points="29.96,-134.07 23.64,-125.57 23.28,-136.16 29.96,-134.07"/>
<text xml:space="preserve" text-anchor="middle" x="37.29" y="-145.7" font-family="Times,serif" font-size="14.00">1</text>
</g>
<!-- 3 -->
<g id="node4" class="node">
<title>3</title>
<ellipse fill="none" stroke="black" cx="72" cy="-283.5" rx="18" ry="18"/>
<text xml:space="preserve" text-anchor="middle" x="72" y="-278.45" font-family="Times,serif" font-size="14.00">3</text>
</g>
</g>
</svg>
